BitterPro-BlackItalic.ufo
<glyph name="dollar" format="2">
  <advance width="605"/>
  <unicode hex="0024"/>
  <guideline x="360" y="218" angle="261"/>
  <guideline x="230" y="218" angle="261"/>
  <outline>
    <contour>
      <point x="243" y="0" type="curve" smooth="yes"/>
      <point x="418" y="0"/>
      <point x="563" y="83"/>
      <point x="563" y="253" type="curve" smooth="yes"/>
      <point x="563" y="494"/>
      <point x="275" y="415"/>
      <point x="275" y="512" type="curve" smooth="yes"/>
      <point x="275" y="548"/>
      <point x="315" y="564"/>
      <point x="367" y="564" type="curve" smooth="yes"/>
      <point x="396" y="564"/>
      <point x="429" y="559"/>
      <point x="460" y="551" type="curve"/>
      <point x="439" y="568" type="line"/>
      <point x="451" y="472" type="line"/>
      <point x="565" y="472" type="line"/>
      <point x="604" y="663" type="line"/>
      <point x="527" y="694"/>
      <point x="447" y="710"/>
      <point x="374" y="710" type="curve" smooth="yes"/>
      <point x="211" y="710"/>
      <point x="81" y="629"/>
      <point x="81" y="470" type="curve" smooth="yes"/>
      <point x="81" y="235"/>
      <point x="367" y="316"/>
      <point x="367" y="210" type="curve" smooth="yes"/>
      <point x="367" y="167"/>
      <point x="321" y="148"/>
      <point x="265" y="148" type="curve" smooth="yes"/>
      <point x="229" y="148"/>
      <point x="189" y="156"/>
      <point x="154" y="171" type="curve"/>
      <point x="172" y="141" type="line"/>
      <point x="163" y="256" type="line"/>
      <point x="47" y="256" type="line"/>
      <point x="13" y="43" type="line"/>
      <point x="89" y="15"/>
      <point x="169" y="0"/>
    </contour>
    <contour>
      <point x="177" y="-125" type="line"/>
      <point x="307" y="-125" type="line"/>
      <point x="331" y="31" type="line"/>
      <point x="201" y="31" type="line"/>
    </contour>
    <contour>
      <point x="303" y="674" type="line"/>
      <point x="433" y="675" type="line"/>
      <point x="458" y="833" type="line"/>
      <point x="328" y="833" type="line"/>
    </contour>
  </outline>
</glyph>
<glyph name="one" format="2">
  <advance width="453"/>
  <unicode hex="0031"/>
  <guideline x="355" y="231" angle="261"/>
  <guideline x="158" y="231" angle="261"/>
  <outline>
    <contour>
      <point x="332" y="85" type="line"/>
      <point x="433" y="714" type="line"/>
      <point x="267" y="714" type="line"/>
      <point x="54" y="580" type="line"/>
      <point x="99" y="457" type="line"/>
      <point x="263" y="542" type="line"/>
      <point x="209" y="542" type="line"/>
      <point x="135" y="85" type="line"/>
      <point x="180" y="143" type="line"/>
      <point x="26" y="100" type="line"/>
      <point x="10" y="0" type="line"/>
      <point x="403" y="0" type="line"/>
      <point x="419" y="100" type="line"/>
      <point x="303" y="136" type="line"/>
    </contour>
  </outline>
</glyph>
<glyph name="five" format="2">
  <advance width="555"/>
  <unicode hex="0035"/>
  <outline>
    <contour>
      <point x="227" y="-15" type="curve" smooth="yes"/>
      <point x="407" y="-15"/>
      <point x="527" y="94"/>
      <point x="527" y="257" type="curve" smooth="yes"/>
      <point x="527" y="449"/>
      <point x="360" y="449"/>
      <point x="288" y="449" type="curve" smooth="yes"/>
      <point x="236" y="449" type="line"/>
      <point x="279" y="407" type="line"/>
      <point x="315" y="589" type="line"/>
      <point x="255" y="555" type="line"/>
      <point x="536" y="555" type="line"/>
      <point x="564" y="710" type="line"/>
      <point x="142" y="710" type="line"/>
      <point x="64" y="303" type="line"/>
      <point x="177" y="304" type="line" smooth="yes"/>
      <point x="259" y="305"/>
      <point x="315" y="306"/>
      <point x="315" y="240" type="curve" smooth="yes"/>
      <point x="315" y="177"/>
      <point x="263" y="145"/>
      <point x="195" y="145" type="curve" smooth="yes"/>
      <point x="151" y="145"/>
      <point x="99" y="158"/>
      <point x="52" y="181" type="curve"/>
      <point x="-14" y="46" type="line"/>
      <point x="67" y="5"/>
      <point x="150" y="-15"/>
    </contour>
  </outline>
</glyph>
<glyph name="V" format="2">
  <advance width="717"/>
  <unicode hex="0056"/>
  <anchor x="316" y="0" name="bottom"/>
  <anchor x="451" y="710" name="top"/>
  <outline>
    <contour>
      <point x="210" y="0" type="line"/>
      <point x="422" y="0" type="line"/>
      <point x="726" y="610" type="line"/>
      <point x="677" y="576" type="line"/>
      <point x="765" y="610" type="line"/>
      <point x="780" y="710" type="line"/>
      <point x="503" y="705" type="line"/>
      <point x="488" y="605" type="line"/>
      <point x="556" y="572" type="line"/>
      <point x="547" y="611" type="line"/>
      <point x="347" y="177" type="line"/>
      <point x="374" y="177" type="line"/>
      <point x="326" y="624" type="line"/>
      <point x="295" y="575" type="line"/>
      <point x="379" y="610" type="line"/>
      <point x="392" y="710" type="line"/>
      <point x="75" y="705" type="line"/>
      <point x="59" y="605" type="line"/>
      <point x="143" y="571" type="line"/>
      <point x="103" y="605" type="line"/>
    </contour>
  </outline>
</glyph>
<glyph name="braceright" format="2">
  <advance width="374"/>
  <unicode hex="007D"/>
  <guideline x="-537" y="-118" angle="0"/>
  <guideline x="609" y="872" angle="0"/>
  <outline>
    <contour>
      <point x="185" y="872" type="curve" smooth="yes"/>
      <point x="109" y="872" type="line"/>
      <point x="90" y="752" type="line"/>
      <point x="180" y="752"/>
      <point x="192" y="733"/>
      <point x="179" y="653" type="curve" smooth="yes"/>
      <point x="160" y="534" type="line" smooth="yes"/>
      <point x="142" y="420"/>
      <point x="214" y="368"/>
      <point x="324" y="368" type="curve"/>
      <point x="316" y="386" type="line"/>
      <point x="202" y="386"/>
      <point x="129" y="342"/>
      <point x="112" y="232" type="curve" smooth="yes"/>
      <point x="94" y="113" type="line" smooth="yes"/>
      <point x="82" y="33"/>
      <point x="57" y="2"/>
      <point x="-29" y="2" type="curve"/>
      <point x="-48" y="-118" type="line"/>
      <point x="30" y="-118" type="line" smooth="yes"/>
      <point x="176" y="-118"/>
      <point x="238" y="-37"/>
      <point x="258" y="91" type="curve" smooth="yes"/>
      <point x="275" y="201" type="line" smooth="yes"/>
      <point x="284" y="260"/>
      <point x="306" y="312"/>
      <point x="379" y="312" type="curve"/>
      <point x="399" y="442" type="line"/>
      <point x="329" y="442"/>
      <point x="318" y="476"/>
      <point x="329" y="541" type="curve" smooth="yes"/>
      <point x="347" y="651" type="line" smooth="yes"/>
      <point x="370" y="791"/>
      <point x="319" y="872"/>
    </contour>
  </outline>
</glyph>
<glyph name="exclamdown" format="2">
  <advance width="305"/>
  <unicode hex="00A1"/>
  <outline>
    <contour>
      <point x="214" y="215" type="line"/>
      <point x="74" y="206" type="line"/>
      <point x="-27" y="-230" type="line"/>
      <point x="176" y="-230" type="line"/>
    </contour>
    <contour>
      <point x="182" y="495" type="curve" smooth="yes"/>
      <point x="116" y="495"/>
      <point x="64" y="451"/>
      <point x="64" y="383" type="curve" smooth="yes"/>
      <point x="64" y="324"/>
      <point x="102" y="287"/>
      <point x="162" y="287" type="curve" smooth="yes"/>
      <point x="230" y="287"/>
      <point x="279" y="335"/>
      <point x="279" y="401" type="curve" smooth="yes"/>
      <point x="279" y="457"/>
      <point x="243" y="495"/>
    </contour>
  </outline>
</glyph>
<glyph name="Eth" format="2">
  <advance width="695"/>
  <unicode hex="00D0"/>
  <guideline x="-290" y="241" angle="90"/>
  <guideline x="25" y="233" angle="261"/>
  <guideline x="378" y="231" angle="261"/>
  <guideline x="490" y="430" angle="0"/>
  <outline>
    <contour>
      <point x="33.95854" y="293.59999999999997" type="line"/>
      <point x="365.95854" y="293.59999999999997" type="line"/>
      <point x="388.77434000000005" y="425.59999999999997" type="line"/>
      <point x="56.77434" y="425.59999999999997" type="line"/>
    </contour>
    <component base="D"/>
  </outline>
</glyph>
<glyph name="Hbar" format="2">
  <advance width="760"/>
  <unicode hex="0126"/>
  <guideline x="74" y="540" angle="261"/>
  <guideline x="774" y="540" angle="261"/>
  <outline>
    <contour>
      <point x="-12" y="0" type="line"/>
      <point x="300" y="0" type="line"/>
      <point x="316" y="100" type="line"/>
      <point x="247" y="132" type="line"/>
      <point x="257" y="105" type="line"/>
      <point x="291" y="318" type="line"/>
      <point x="259" y="275" type="line"/>
      <point x="504" y="275" type="line"/>
      <point x="482" y="319" type="line"/>
      <point x="448" y="105" type="line"/>
      <point x="472" y="131" type="line"/>
      <point x="392" y="100" type="line"/>
      <point x="376" y="0" type="line"/>
      <point x="688" y="0" type="line"/>
      <point x="704" y="100" type="line"/>
      <point x="635" y="132" type="line"/>
      <point x="645" y="105" type="line"/>
      <point x="724" y="600" type="line"/>
      <point x="702" y="572" type="line"/>
      <point x="785" y="610" type="line"/>
      <point x="801" y="710" type="line"/>
      <point x="488" y="705" type="line"/>
      <point x="472" y="605" type="line"/>
      <point x="546" y="571" type="line"/>
      <point x="527" y="600" type="line"/>
      <point x="492" y="383" type="line"/>
      <point x="531" y="415" type="line"/>
      <point x="285" y="415" type="line"/>
      <point x="303" y="390" type="line"/>
      <point x="336" y="600" type="line"/>
      <point x="314" y="572" type="line"/>
      <point x="397" y="610" type="line"/>
      <point x="413" y="710" type="line"/>
      <point x="100" y="705" type="line"/>
      <point x="84" y="605" type="line"/>
      <point x="158" y="571" type="line"/>
      <point x="139" y="600" type="line"/>
      <point x="60" y="105" type="line"/>
      <point x="84" y="131" type="line"/>
      <point x="4" y="100" type="line"/>
    </contour>
    <contour>
      <point x="62" y="459" type="line"/>
      <point x="761" y="459" type="line"/>
      <point x="776" y="554" type="line"/>
      <point x="77" y="554" type="line"/>
    </contour>
  </outline>
</glyph>
<glyph name="idotless" format="2">
  <advance width="329"/>
  <unicode hex="0131"/>
  <guideline x="63" y="231" angle="261"/>
  <guideline x="255" y="231" angle="261"/>
  <guideline x="8" y="231" angle="261"/>
  <guideline x="310" y="231" angle="261"/>
  <guideline x="454" y="666" angle="261"/>
  <guideline x="646" y="666" angle="261"/>
  <anchor x="123" y="0" name="bottom"/>
  <anchor x="220" y="0" name="ogonek"/>
  <anchor x="207" y="540" name="top"/>
  <outline>
    <contour>
      <point x="25" y="-6" type="line"/>
      <point x="283" y="0" type="line"/>
      <point x="299" y="100" type="line"/>
      <point x="155" y="157" type="line"/>
      <point x="223" y="30" type="line"/>
      <point x="304" y="544" type="line"/>
      <point x="47" y="536" type="line"/>
      <point x="31" y="436" type="line"/>
      <point x="175" y="381" type="line"/>
      <point x="106" y="504" type="line"/>
    </contour>
  </outline>
</glyph>
<glyph name="tbar" format="2">
  <advance width="428"/>
  <unicode hex="0167"/>
  <guideline x="27" y="454" angle="261"/>
  <guideline x="415" y="454" angle="261"/>
  <outline>
    <contour>
      <point x="-9.517219999999998" y="225" type="line"/>
      <point x="372.28278" y="225" type="line"/>
      <point x="389.84338" y="335" type="line"/>
      <point x="8.043379999999999" y="335" type="line"/>
    </contour>
    <component base="t"/>
  </outline>
</glyph>
<glyph name="ring" format="2">
  <advance width="372"/>
  <unicode hex="02DA"/>
  <guideline x="486" y="827" angle="0"/>
  <guideline x="271" y="633" angle="0"/>
  <guideline x="545" y="864" angle="0"/>
  <guideline x="242" y="596" angle="0"/>
  <guideline x="244" y="633" angle="261"/>
  <guideline x="268" y="680" angle="0"/>
  <anchor x="229" y="540" name="_top"/>
  <outline>
    <contour>
      <point x="243" y="592" type="curve" smooth="yes"/>
      <point x="358" y="592"/>
      <point x="418" y="674"/>
      <point x="418" y="757" type="curve" smooth="yes"/>
      <point x="418" y="828"/>
      <point x="377" y="886"/>
      <point x="281" y="886" type="curve" smooth="yes"/>
      <point x="168" y="886"/>
      <point x="104" y="806"/>
      <point x="104" y="719" type="curve" smooth="yes"/>
      <point x="104" y="651"/>
      <point x="146" y="592"/>
    </contour>
    <contour>
      <point x="250" y="680" type="curve" smooth="yes"/>
      <point x="223" y="680"/>
      <point x="214" y="696"/>
      <point x="214" y="723" type="curve" smooth="yes"/>
      <point x="214" y="760"/>
      <point x="231" y="798"/>
      <point x="272" y="798" type="curve" smooth="yes"/>
      <point x="298" y="798"/>
      <point x="308" y="782"/>
      <point x="308" y="755" type="curve" smooth="yes"/>
      <point x="308" y="719"/>
      <point x="291" y="680"/>
    </contour>
  </outline>
</glyph>
<glyph name="commaturnedabovecomb" format="2">
  <unicode hex="0312"/>
  <guideline x="180" y="630" angle="81"/>
  <anchor x="166" y="540" name="_top"/>
  <anchor x="204" y="780" name="top"/>
  <outline>
    <contour>
      <point x="259" y="912" type="line"/>
      <point x="131" y="802"/>
      <point x="96" y="734"/>
      <point x="96" y="679" type="curve" smooth="yes"/>
      <point x="96" y="618"/>
      <point x="138" y="591"/>
      <point x="181" y="591" type="curve" smooth="yes"/>
      <point x="228" y="591"/>
      <point x="276" y="623"/>
      <point x="276" y="686" type="curve" smooth="yes"/>
      <point x="276" y="724"/>
      <point x="258" y="745"/>
      <point x="258" y="767" type="curve" smooth="yes"/>
      <point x="258" y="790"/>
      <point x="278" y="808"/>
      <point x="319" y="860" type="curve"/>
    </contour>
  </outline>
</glyph>
<glyph name="Iu-cy" format="2">
  <advance width="1061"/>
  <unicode hex="042E"/>
  <outline>
    <contour>
      <point x="-14" y="0" type="line"/>
      <point x="298" y="0" type="line"/>
      <point x="314" y="100" type="line"/>
      <point x="245" y="132" type="line"/>
      <point x="255" y="106" type="line"/>
      <point x="289" y="318" type="line"/>
      <point x="257" y="290" type="line"/>
      <point x="493" y="290" type="line"/>
      <point x="516" y="435" type="line"/>
      <point x="282" y="435" type="line"/>
      <point x="303" y="412" type="line"/>
      <point x="334" y="600" type="line"/>
      <point x="312" y="572" type="line"/>
      <point x="395" y="610" type="line"/>
      <point x="410" y="710" type="line"/>
      <point x="98" y="705" type="line"/>
      <point x="82" y="605" type="line"/>
      <point x="156" y="571" type="line"/>
      <point x="138" y="610" type="line"/>
      <point x="58" y="105" type="line"/>
      <point x="82" y="131" type="line"/>
      <point x="2" y="100" type="line"/>
    </contour>
    <contour>
      <point x="665" y="-15" type="curve" smooth="yes"/>
      <point x="957" y="-15"/>
      <point x="1053" y="241"/>
      <point x="1053" y="434" type="curve" smooth="yes"/>
      <point x="1053" y="616"/>
      <point x="968" y="725"/>
      <point x="777" y="725" type="curve" smooth="yes"/>
      <point x="486" y="725"/>
      <point x="389" y="471"/>
      <point x="389" y="277" type="curve" smooth="yes"/>
      <point x="389" y="96"/>
      <point x="473" y="-15"/>
    </contour>
    <contour>
      <point x="683" y="140" type="curve" smooth="yes"/>
      <point x="628" y="140"/>
      <point x="597" y="176"/>
      <point x="597" y="272" type="curve" smooth="yes"/>
      <point x="597" y="364"/>
      <point x="625" y="570"/>
      <point x="760" y="570" type="curve" smooth="yes"/>
      <point x="815" y="570"/>
      <point x="845" y="536"/>
      <point x="845" y="442" type="curve" smooth="yes"/>
      <point x="845" y="350"/>
      <point x="816" y="140"/>
    </contour>
  </outline>
</glyph>
<glyph name="de-cy" format="2">
  <advance width="593"/>
  <unicode hex="0434"/>
  <outline>
    <contour>
      <point x="243" y="-15" type="curve" smooth="yes"/>
      <point x="484" y="-15"/>
      <point x="588" y="228"/>
      <point x="588" y="456" type="curve" smooth="yes"/>
      <point x="588" y="686"/>
      <point x="482" y="794"/>
      <point x="303" y="794" type="curve" smooth="yes"/>
      <point x="258" y="794"/>
      <point x="207" y="787"/>
      <point x="152" y="773" type="curve"/>
      <point x="167" y="634" type="line"/>
      <point x="196" y="641"/>
      <point x="220" y="644"/>
      <point x="246" y="644" type="curve" smooth="yes"/>
      <point x="362" y="644"/>
      <point x="388" y="585"/>
      <point x="388" y="456" type="curve" smooth="yes"/>
      <point x="388" y="321"/>
      <point x="360" y="125"/>
      <point x="269" y="125" type="curve" smooth="yes"/>
      <point x="237" y="125"/>
      <point x="208" y="149"/>
      <point x="208" y="224" type="curve" smooth="yes"/>
      <point x="208" y="317"/>
      <point x="254" y="391"/>
      <point x="321" y="391" type="curve" smooth="yes"/>
      <point x="349" y="391"/>
      <point x="368" y="378"/>
      <point x="395" y="350" type="curve"/>
      <point x="433" y="471" type="line"/>
      <point x="376" y="513"/>
      <point x="319" y="531"/>
      <point x="267" y="531" type="curve" smooth="yes"/>
      <point x="122" y="531"/>
      <point x="12" y="393"/>
      <point x="12" y="220" type="curve" smooth="yes"/>
      <point x="12" y="50"/>
      <point x="118" y="-15"/>
    </contour>
  </outline>
</glyph>
<glyph name="Izhitsa-cy" format="2">
  <advance width="791"/>
  <unicode hex="0474"/>
  <anchor x="459" y="710" name="top"/>
  <outline>
    <contour>
      <point x="210" y="0" type="line"/>
      <point x="422" y="0" type="line"/>
      <point x="631" y="420" type="line" smooth="yes"/>
      <point x="668" y="494"/>
      <point x="691" y="541"/>
      <point x="791" y="541" type="curve" smooth="yes"/>
      <point x="793" y="541"/>
      <point x="792" y="541"/>
      <point x="805" y="540" type="curve"/>
      <point x="850" y="708" type="line"/>
      <point x="806" y="719"/>
      <point x="769" y="725"/>
      <point x="738" y="725" type="curve" smooth="yes"/>
      <point x="595" y="725"/>
      <point x="538" y="596"/>
      <point x="485" y="480" type="curve" smooth="yes"/>
      <point x="347" y="177" type="line"/>
      <point x="374" y="177" type="line"/>
      <point x="326" y="624" type="line"/>
      <point x="293" y="575" type="line"/>
      <point x="380" y="610" type="line"/>
      <point x="393" y="710" type="line"/>
      <point x="75" y="705" type="line"/>
      <point x="59" y="605" type="line"/>
      <point x="143" y="571" type="line"/>
      <point x="103" y="605" type="line"/>
    </contour>
  </outline>
</glyph>
<glyph name="izhitsa-cy" format="2">
  <advance width="646"/>
  <unicode hex="0475"/>
  <guideline x="318" y="390" angle="81"/>
  <anchor x="339" y="540" name="top"/>
  <outline>
    <contour>
      <point x="688" y="534" type="line"/>
      <point x="645" y="548"/>
      <point x="609" y="555"/>
      <point x="579" y="555" type="curve" smooth="yes"/>
      <point x="454" y="555"/>
      <point x="399" y="436"/>
      <point x="349" y="318" type="curve" smooth="yes"/>
      <point x="266" y="124" type="line"/>
      <point x="295" y="124" type="line"/>
      <point x="252" y="543" type="line"/>
      <point x="40" y="535" type="line"/>
      <point x="25" y="435" type="line"/>
      <point x="83" y="415" type="line"/>
      <point x="63" y="435" type="line"/>
      <point x="150" y="-2" type="line"/>
      <point x="362" y="-2" type="line"/>
      <point x="511" y="292" type="line" smooth="yes"/>
      <point x="544" y="357"/>
      <point x="563" y="385"/>
      <point x="618" y="385" type="curve" smooth="yes"/>
      <point x="625" y="385"/>
      <point x="632" y="385"/>
      <point x="639" y="384" type="curve"/>
    </contour>
  </outline>
</glyph>
<glyph name="tlinebelow" format="2">
  <advance width="428"/>
  <unicode hex="1E6F"/>
  <outline>
    <contour>
      <point x="340" y="-79" type="line"/>
      <point x="17" y="-79" type="line"/>
      <point x="-4" y="-214" type="line"/>
      <point x="318" y="-214" type="line"/>
    </contour>
    <component base="t"/>
  </outline>
</glyph>
<glyph name="dong" format="2">
  <advance width="597"/>
  <unicode hex="20AB"/>
  <guideline x="583" y="195" angle="261"/>
  <guideline x="23" y="195" angle="261"/>
  <anchor x="254" y="0" name="bottom"/>
  <anchor x="287" y="270" name="center"/>
  <anchor x="330" y="540" name="top"/>
  <anchor x="615" y="540" name="topright"/>
  <outline>
    <contour>
      <point x="162" y="-15" type="curve" smooth="yes"/>
      <point x="262" y="-15"/>
      <point x="379" y="82"/>
      <point x="401" y="253" type="curve"/>
      <point x="343" y="145" type="line"/>
      <point x="316" y="-3" type="line"/>
      <point x="552" y="3" type="line"/>
      <point x="568" y="103" type="line"/>
      <point x="424" y="160" type="line"/>
      <point x="491" y="33" type="line"/>
      <point x="610" y="785" type="line"/>
      <point x="417" y="779" type="line"/>
      <point x="378" y="531" type="line"/>
      <point x="522" y="487" type="line"/>
      <point x="459" y="535"/>
      <point x="392" y="556"/>
      <point x="328" y="556" type="curve" smooth="yes"/>
      <point x="148" y="556"/>
      <point x="10" y="393"/>
      <point x="10" y="191" type="curve" smooth="yes"/>
      <point x="10" y="46"/>
      <point x="81" y="-15"/>
    </contour>
    <contour>
      <point x="-32" y="-162" type="line"/>
      <point x="526" y="-162" type="line"/>
      <point x="542" y="-57" type="line"/>
      <point x="-16" y="-57" type="line"/>
    </contour>
    <contour>
      <point x="244" y="140" type="curve" smooth="yes"/>
      <point x="219" y="140"/>
      <point x="206" y="164"/>
      <point x="206" y="214" type="curve" smooth="yes"/>
      <point x="206" y="311"/>
      <point x="255" y="411"/>
      <point x="324" y="411" type="curve" smooth="yes"/>
      <point x="346" y="411"/>
      <point x="369" y="401"/>
      <point x="394" y="378" type="curve"/>
      <point x="362" y="432" type="line"/>
      <point x="341" y="303" type="line" smooth="yes"/>
      <point x="325" y="205"/>
      <point x="286" y="140"/>
    </contour>
    <contour>
      <point x="236" y="605" type="line"/>
      <point x="647" y="605" type="line"/>
      <point x="663" y="710" type="line"/>
      <point x="252" y="710" type="line"/>
    </contour>
  </outline>
</glyph>
<glyph name="trademark" format="2">
  <advance width="1000"/>
  <unicode hex="2122"/>
  <guideline x="112" y="317" angle="0"/>
  <guideline x="205" y="402" angle="0"/>
  <guideline x="785" y="343" angle="260.9759"/>
  <guideline x="919" y="325" angle="260.9759"/>
  <guideline x="444" y="394" angle="260.9759"/>
  <guideline x="53" y="394" angle="260.9759"/>
  <outline>
    <contour>
      <point x="117" y="317" type="line"/>
      <point x="354" y="317" type="line"/>
      <point x="366" y="392" type="line"/>
      <point x="303" y="414" type="line"/>
      <point x="319" y="377" type="line"/>
      <point x="358" y="624" type="line"/>
      <point x="326" y="605" type="line"/>
      <point x="398" y="605" type="line"/>
      <point x="377" y="624" type="line"/>
      <point x="384" y="559" type="line"/>
      <point x="470" y="559" type="line"/>
      <point x="494" y="710" type="line"/>
      <point x="103" y="710" type="line"/>
      <point x="79" y="559" type="line"/>
      <point x="166" y="559" type="line"/>
      <point x="193" y="630" type="line"/>
      <point x="161" y="605" type="line"/>
      <point x="235" y="605" type="line"/>
      <point x="214" y="624" type="line"/>
      <point x="175" y="377" type="line"/>
      <point x="204" y="414" type="line"/>
      <point x="129" y="392" type="line"/>
    </contour>
    <contour>
      <point x="1004" y="637" type="line"/>
      <point x="1015" y="712" type="line"/>
      <point x="802" y="709" type="line"/>
      <point x="698" y="513" type="line"/>
      <point x="756" y="513" type="line"/>
      <point x="713" y="712" type="line"/>
      <point x="514" y="709" type="line"/>
      <point x="502" y="635" type="line"/>
      <point x="551" y="613" type="line"/>
      <point x="543" y="645" type="line"/>
      <point x="502" y="388" type="line"/>
      <point x="522" y="413" type="line"/>
      <point x="463" y="392" type="line"/>
      <point x="457" y="317" type="line"/>
      <point x="632" y="317" type="line"/>
      <point x="643" y="392" type="line"/>
      <point x="600" y="412" type="line"/>
      <point x="613" y="388" type="line"/>
      <point x="646" y="595" type="line"/>
      <point x="618" y="578" type="line"/>
      <point x="666" y="413" type="line"/>
      <point x="746" y="416" type="line"/>
      <point x="844" y="585" type="line"/>
      <point x="825" y="595" type="line"/>
      <point x="792" y="388" type="line"/>
      <point x="820" y="414" type="line"/>
      <point x="759" y="392" type="line"/>
      <point x="747" y="317" type="line"/>
      <point x="953" y="317" type="line"/>
      <point x="964" y="392" type="line"/>
      <point x="915" y="414" type="line"/>
      <point x="929" y="388" type="line"/>
      <point x="970" y="645" type="line"/>
      <point x="944" y="611" type="line"/>
    </contour>
  </outline>
</glyph>
<glyph name="leftArrow" format="2">
  <advance width="711"/>
  <unicode hex="2190"/>
  <outline>
    <contour>
      <point x="213" y="254" type="line"/>
      <point x="723" y="254" type="line"/>
      <point x="747" y="409" type="line"/>
      <point x="237" y="409" type="line"/>
      <point x="232" y="361" type="line"/>
      <point x="467" y="585" type="line"/>
      <point x="377" y="679" type="line"/>
      <point x="47" y="370" type="line"/>
      <point x="38" y="293" type="line"/>
      <point x="274" y="-16" type="line"/>
      <point x="385" y="75" type="line"/>
      <point x="221" y="311" type="line"/>
    </contour>
  </outline>
</glyph>
<glyph name="downArrow" format="2">
  <advance width="640"/>
  <unicode hex="2193"/>
  <outline>
    <contour>
      <point x="400" y="187" type="line"/>
      <point x="483" y="710" type="line"/>
      <point x="315" y="710" type="line"/>
      <point x="232" y="188" type="line"/>
      <point x="284" y="188" type="line"/>
      <point x="97" y="393" type="line"/>
      <point x="0" y="295" type="line"/>
      <point x="251" y="0" type="line"/>
      <point x="325" y="0" type="line"/>
      <point x="667" y="295" type="line"/>
      <point x="585" y="389" type="line"/>
      <point x="338" y="188" type="line"/>
    </contour>
  </outline>
</glyph>
<glyph name="summation" format="2">
  <advance width="611"/>
  <unicode hex="2211"/>
  <outline>
    <contour>
      <point x="416" y="-14" type="line"/>
      <point x="378" y="-115" type="line"/>
      <point x="419" y="-85" type="line"/>
      <point x="149" y="-85" type="line"/>
      <point x="170" y="-115" type="line"/>
      <point x="446" y="250" type="line"/>
      <point x="298" y="595" type="line"/>
      <point x="258" y="565" type="line"/>
      <point x="508" y="565" type="line"/>
      <point x="479" y="591" type="line"/>
      <point x="488" y="503" type="line"/>
      <point x="602" y="503" type="line"/>
      <point x="635" y="710" type="line"/>
      <point x="100" y="710" type="line"/>
      <point x="85" y="600" type="line"/>
      <point x="253" y="206" type="line"/>
      <point x="271" y="277" type="line"/>
      <point x="-39" y="-130" type="line"/>
      <point x="-53" y="-230" type="line"/>
      <point x="496" y="-230" type="line"/>
      <point x="532" y="-14" type="line"/>
    </contour>
  </outline>
</glyph>
<glyph name="upBlackTriangle" format="2">
  <advance width="618"/>
  <unicode hex="25B2"/>
  <outline>
    <contour>
      <point x="347" y="561" type="line"/>
      <point x="32" y="117" type="line"/>
      <point x="524" y="117" type="line"/>
    </contour>
  </outline>
</glyph>
<glyph name="downBlackTriangle" format="2">
  <advance width="618"/>
  <unicode hex="25BC"/>
  <outline>
    <contour>
      <point x="284" y="61" type="line"/>
      <point x="599" y="505" type="line"/>
      <point x="107" y="505" type="line"/>
    </contour>
  </outline>
</glyph>
<glyph name="bracketright.case" format="2">
  <advance width="346"/>
  <guideline x="-544" y="-118" angle="0"/>
  <outline>
    <contour>
      <point x="375" y="822" type="line"/>
      <point x="97" y="817" type="line"/>
      <point x="78" y="697" type="line"/>
      <point x="190" y="687" type="line"/>
      <point x="84" y="17" type="line"/>
      <point x="-31" y="7" type="line"/>
      <point x="-50" y="-113" type="line"/>
      <point x="226" y="-118" type="line"/>
    </contour>
  </outline>
</glyph>
<glyph name="caron.i" format="2">
  <advance width="329"/>
  <anchor x="244" y="780" name="top"/>
  <outline>
    <contour>
      <point x="361" y="846" type="line"/>
      <point x="161" y="703" type="line"/>
      <point x="286" y="696" type="line"/>
      <point x="136" y="846" type="line"/>
      <point x="61" y="785" type="line"/>
      <point x="165" y="607" type="line"/>
      <point x="274" y="618" type="line"/>
      <point x="418" y="775" type="line"/>
    </contour>
  </outline>
</glyph>
<glyph name="che-cy.loclBGR" format="2">
  <advance width="614"/>
  <anchor x="571" y="0" name="bottomright"/>
  <anchor x="290" y="200" name="center"/>
  <anchor x="342" y="540" name="top"/>
  <outline>
    <contour>
      <point x="310" y="-6" type="line"/>
      <point x="571" y="0" type="line"/>
      <point x="587" y="99" type="line"/>
      <point x="499" y="133" type="line"/>
      <point x="520" y="100" type="line"/>
      <point x="590" y="540" type="line"/>
      <point x="396" y="540" type="line"/>
      <point x="368" y="349" type="line" smooth="yes"/>
      <point x="360" y="296"/>
      <point x="317" y="271"/>
      <point x="285" y="271" type="curve" smooth="yes"/>
      <point x="253" y="271"/>
      <point x="255" y="297"/>
      <point x="259" y="321" type="curve" smooth="yes"/>
      <point x="292" y="544" type="line"/>
      <point x="46" y="536" type="line"/>
      <point x="31" y="436" type="line"/>
      <point x="124" y="393" type="line"/>
      <point x="83" y="441" type="line"/>
      <point x="56" y="253" type="line" smooth="yes"/>
      <point x="45" y="177"/>
      <point x="88" y="119"/>
      <point x="187" y="119" type="curve" smooth="yes"/>
      <point x="299" y="119"/>
      <point x="414" y="185"/>
      <point x="445" y="329" type="curve"/>
      <point x="360" y="228" type="line"/>
    </contour>
  </outline>
</glyph>
<glyph name="circumflexcomb_acutecomb" format="2">
  <guideline x="270" y="581" angle="0"/>
  <guideline x="766" y="999" angle="0"/>
  <guideline x="278" y="529" angle="261"/>
  <guideline x="458" y="529" angle="261"/>
  <guideline x="98" y="529" angle="261"/>
  <anchor x="280" y="540" name="_top"/>
  <outline>
    <contour>
      <point x="484.6862" y="737.6006" type="line"/>
      <point x="662.1675" y="908.5049" type="line"/>
      <point x="568.4706" y="998.7516" type="line"/>
      <point x="410.7874" y="806.0996" type="line"/>
    </contour>
    <component base="circumflexcomb" xOffset="-5" yOffset="-35"/>
  </outline>
</glyph>
<glyph name="dblgravecomb.case" format="2">
  <guideline x="367" y="756" angle="0"/>
  <guideline x="634" y="998" angle="0"/>
  <anchor x="385" y="710" name="_top"/>
  <anchor x="396" y="970" name="top"/>
  <outline>
    <contour>
      <point x="273" y="740" type="line"/>
      <point x="142" y="959" type="line"/>
      <point x="269" y="1020" type="line"/>
      <point x="368" y="784" type="line"/>
    </contour>
    <contour>
      <point x="462" y="740" type="line"/>
      <point x="340" y="964" type="line"/>
      <point x="468" y="1020" type="line"/>
      <point x="559" y="782" type="line"/>
    </contour>
  </outline>
</glyph>
<glyph name="descender-cy.case" format="2">
  <advance width="334"/>
  <guideline x="309" y="145" angle="0"/>
  <guideline x="273" y="100" angle="0"/>
  <anchor x="171" y="0" name="_bottomright"/>
  <outline>
    <contour>
      <point x="31" y="153" type="line"/>
      <point x="7" y="0" type="line"/>
      <point x="71" y="0" type="line"/>
      <point x="51" y="18" type="line"/>
      <point x="74" y="-200" type="line"/>
      <point x="188" y="-200" type="line"/>
      <point x="234" y="100" type="line"/>
    </contour>
  </outline>
</glyph>
<glyph name="eth.sc" format="2">
  <advance width="626"/>
  <guideline x="-157" y="433" angle="90"/>
  <guideline x="-20" y="-51" angle="261"/>
  <outline>
    <contour>
      <point x="-12" y="0" type="line"/>
      <point x="260" y="0" type="line" smooth="yes"/>
      <point x="479" y="0"/>
      <point x="617" y="168"/>
      <point x="617" y="367" type="curve" smooth="yes"/>
      <point x="617" y="524"/>
      <point x="531" y="591"/>
      <point x="353" y="591" type="curve" smooth="yes"/>
      <point x="328" y="591" type="line"/>
      <point x="81" y="587" type="line"/>
      <point x="65" y="487" type="line"/>
      <point x="134" y="456" type="line"/>
      <point x="114" y="495" type="line"/>
      <point x="51" y="94" type="line"/>
      <point x="83" y="132" type="line"/>
      <point x="4" y="100" type="line"/>
    </contour>
    <contour>
      <point x="248" y="109" type="line"/>
      <point x="307" y="482" type="line"/>
      <point x="271" y="453" type="line"/>
      <point x="343" y="453" type="line" smooth="yes"/>
      <point x="410" y="453"/>
      <point x="414" y="409"/>
      <point x="414" y="371" type="curve" smooth="yes"/>
      <point x="414" y="255"/>
      <point x="377" y="138"/>
      <point x="285" y="138" type="curve" smooth="yes"/>
      <point x="224" y="138" type="line"/>
    </contour>
    <contour>
      <point x="27" y="245" type="line"/>
      <point x="333" y="245" type="line"/>
      <point x="349" y="355" type="line"/>
      <point x="44" y="355" type="line"/>
    </contour>
  </outline>
</glyph>
<glyph name="f.alt" format="2">
  <advance width="375"/>
  <outline>
    <contour>
      <point x="-48" y="-245" type="curve" smooth="yes"/>
      <point x="53" y="-245"/>
      <point x="191" y="-202"/>
      <point x="228" y="30" type="curve" smooth="yes"/>
      <point x="291" y="427" type="line"/>
      <point x="272" y="405" type="line"/>
      <point x="395" y="405" type="line"/>
      <point x="417" y="535" type="line"/>
      <point x="286" y="535" type="line"/>
      <point x="304" y="510" type="line"/>
      <point x="314" y="574" type="line" smooth="yes"/>
      <point x="318" y="599"/>
      <point x="326" y="654"/>
      <point x="389" y="654" type="curve" smooth="yes"/>
      <point x="414" y="654"/>
      <point x="448" y="645"/>
      <point x="489" y="631" type="curve"/>
      <point x="411" y="578" type="line"/>
      <point x="493" y="818" type="line"/>
      <point x="604" y="731" type="line"/>
      <point x="529" y="774"/>
      <point x="453" y="795"/>
      <point x="382" y="795" type="curve" smooth="yes"/>
      <point x="251" y="795"/>
      <point x="146" y="720"/>
      <point x="120" y="558" type="curve" smooth="yes"/>
      <point x="112" y="508" type="line"/>
      <point x="138" y="540" type="line"/>
      <point x="39" y="510" type="line"/>
      <point x="22" y="405" type="line"/>
      <point x="111" y="405" type="line"/>
      <point x="99" y="427" type="line"/>
      <point x="28" y="-19" type="line" smooth="yes"/>
      <point x="17" y="-86"/>
      <point x="-23" y="-105"/>
      <point x="-67" y="-105" type="curve" smooth="yes"/>
      <point x="-81" y="-105"/>
      <point x="-95" y="-103"/>
      <point x="-108" y="-101" type="curve"/>
      <point x="-139" y="-235" type="line"/>
      <point x="-118" y="-239"/>
      <point x="-86" y="-245"/>
    </contour>
  </outline>
</glyph>
<glyph name="gje-cy.loclMKD" format="2">
  <advance width="329"/>
  <outline>
    <contour>
      <point x="381.20000000000005" y="716" type="line"/>
      <point x="84.04" y="716" type="line"/>
      <point x="64.72" y="581" type="line"/>
      <point x="360.96000000000004" y="581" type="line"/>
    </contour>
    <contour>
      <point x="139.24" y="736" type="line"/>
      <point x="405.12000000000006" y="838" type="line"/>
      <point x="350.84000000000003" y="981" type="line"/>
      <point x="97.84" y="827" type="line"/>
    </contour>
    <component base="idotless"/>
  </outline>
</glyph>
<glyph name="hbar.BRACKET.155" format="2">
  <advance width="610"/>
  <guideline x="20" y="472" angle="261"/>
  <outline>
    <contour>
      <point x="308" y="-3" type="line"/>
      <point x="567" y="3" type="line"/>
      <point x="583" y="103" type="line"/>
      <point x="433" y="160" type="line"/>
      <point x="517" y="99" type="line"/>
      <point x="559" y="362" type="line" smooth="yes"/>
      <point x="577" y="472"/>
      <point x="527" y="555"/>
      <point x="427" y="555" type="curve" smooth="yes"/>
      <point x="326" y="555"/>
      <point x="208" y="471"/>
      <point x="177" y="288" type="curve"/>
      <point x="252" y="399" type="line"/>
      <point x="324" y="785" type="line"/>
      <point x="131" y="776" type="line"/>
      <point x="9" y="0" type="line"/>
      <point x="202" y="0" type="line"/>
      <point x="240" y="246" type="line" smooth="yes"/>
      <point x="256" y="350"/>
      <point x="295" y="403"/>
      <point x="336" y="403" type="curve" smooth="yes"/>
      <point x="373" y="403"/>
      <point x="367" y="359"/>
      <point x="360" y="315" type="curve" smooth="yes"/>
    </contour>
    <contour>
      <point x="39" y="591" type="line"/>
      <point x="441" y="591" type="line"/>
      <point x="458" y="696" type="line"/>
      <point x="55" y="696" type="line"/>
    </contour>
  </outline>
</glyph>
<glyph name="nine.tf" format="2">
  <advance width="600"/>
  <outline>
    <contour>
      <point x="408" y="435" type="line"/>
      <point x="387" y="414"/>
      <point x="351" y="401"/>
      <point x="319" y="401" type="curve" smooth="yes"/>
      <point x="285" y="401"/>
      <point x="255" y="415"/>
      <point x="255" y="467" type="curve" smooth="yes"/>
      <point x="255" y="519"/>
      <point x="281" y="570"/>
      <point x="339" y="570" type="curve" smooth="yes"/>
      <point x="372" y="570"/>
      <point x="401" y="553"/>
      <point x="401" y="455" type="curve" smooth="yes"/>
      <point x="401" y="291"/>
      <point x="321" y="147"/>
      <point x="140" y="147" type="curve" smooth="yes"/>
      <point x="119" y="147"/>
      <point x="94" y="149"/>
      <point x="68" y="154" type="curve"/>
      <point x="41" y="0" type="line"/>
      <point x="81" y="-10"/>
      <point x="120" y="-14"/>
      <point x="156" y="-14" type="curve" smooth="yes"/>
      <point x="405" y="-14"/>
      <point x="606" y="178"/>
      <point x="606" y="439" type="curve" smooth="yes"/>
      <point x="606" y="652"/>
      <point x="471" y="725"/>
      <point x="342" y="725" type="curve" smooth="yes"/>
      <point x="193" y="725"/>
      <point x="49" y="623"/>
      <point x="49" y="454" type="curve" smooth="yes"/>
      <point x="49" y="321"/>
      <point x="138" y="261"/>
      <point x="245" y="261" type="curve" smooth="yes"/>
      <point x="297" y="261"/>
      <point x="352" y="275"/>
      <point x="405" y="301" type="curve"/>
    </contour>
  </outline>
</glyph>
<glyph name="one.osf" format="2">
  <advance width="454"/>
  <outline>
    <contour>
      <point x="334" y="85" type="line"/>
      <point x="416" y="597" type="line"/>
      <point x="250" y="597" type="line"/>
      <point x="37" y="463" type="line"/>
      <point x="82" y="340" type="line"/>
      <point x="246" y="425" type="line"/>
      <point x="192" y="425" type="line"/>
      <point x="137" y="85" type="line"/>
      <point x="182" y="143" type="line"/>
      <point x="28" y="100" type="line"/>
      <point x="12" y="0" type="line"/>
      <point x="405" y="0" type="line"/>
      <point x="421" y="100" type="line"/>
      <point x="305" y="136" type="line"/>
    </contour>
  </outline>
</glyph>
<glyph name="questiondown.sc" format="2">
  <advance width="402"/>
  <outline>
    <contour>
      <point x="193" y="362" type="line"/>
      <point x="193" y="360"/>
      <point x="193" y="357"/>
      <point x="193" y="355" type="curve" smooth="yes"/>
      <point x="193" y="274"/>
      <point x="-31" y="258"/>
      <point x="-31" y="110" type="curve" smooth="yes"/>
      <point x="-31" y="18"/>
      <point x="56" y="-17"/>
      <point x="161" y="-17" type="curve" smooth="yes"/>
      <point x="229" y="-17"/>
      <point x="304" y="-2"/>
      <point x="372" y="24" type="curve"/>
      <point x="335" y="141" type="line"/>
      <point x="293" y="127"/>
      <point x="249" y="117"/>
      <point x="218" y="117" type="curve" smooth="yes"/>
      <point x="191" y="117"/>
      <point x="179" y="125"/>
      <point x="179" y="141" type="curve" smooth="yes"/>
      <point x="179" y="197"/>
      <point x="333" y="202"/>
      <point x="333" y="324" type="curve" smooth="yes"/>
      <point x="333" y="334"/>
      <point x="332" y="346"/>
      <point x="330" y="357" type="curve"/>
    </contour>
    <contour>
      <point x="289" y="606" type="curve" smooth="yes"/>
      <point x="223" y="606"/>
      <point x="171" y="562"/>
      <point x="171" y="494" type="curve" smooth="yes"/>
      <point x="171" y="435"/>
      <point x="209" y="398"/>
      <point x="269" y="398" type="curve" smooth="yes"/>
      <point x="337" y="398"/>
      <point x="386" y="446"/>
      <point x="386" y="512" type="curve" smooth="yes"/>
      <point x="386" y="568"/>
      <point x="350" y="606"/>
    </contour>
  </outline>
</glyph>
<glyph name="ve-cy.loclBGR" format="2">
  <advance width="579"/>
  <outline>
    <contour>
      <point x="249" y="-15" type="curve" smooth="yes"/>
      <point x="392" y="-15"/>
      <point x="532" y="56"/>
      <point x="558" y="222" type="curve" smooth="yes"/>
      <point x="582" y="369"/>
      <point x="501" y="436"/>
      <point x="381" y="433" type="curve"/>
      <point x="382" y="417" type="line"/>
      <point x="503" y="425"/>
      <point x="567" y="502"/>
      <point x="581" y="588" type="curve" smooth="yes"/>
      <point x="601" y="714"/>
      <point x="515" y="794"/>
      <point x="372" y="794" type="curve" smooth="yes"/>
      <point x="230" y="794"/>
      <point x="107" y="719"/>
      <point x="80" y="548" type="curve" smooth="yes"/>
      <point x="31" y="240" type="line" smooth="yes"/>
      <point x="2" y="58"/>
      <point x="108" y="-15"/>
    </contour>
    <contour>
      <point x="265" y="130" type="curve" smooth="yes"/>
      <point x="224" y="130"/>
      <point x="210" y="157"/>
      <point x="220" y="222" type="curve" smooth="yes"/>
      <point x="245" y="387" type="line"/>
      <point x="210" y="357" type="line"/>
      <point x="284" y="357" type="line" smooth="yes"/>
      <point x="348" y="357"/>
      <point x="377" y="329"/>
      <point x="364" y="252" type="curve" smooth="yes"/>
      <point x="351" y="168"/>
      <point x="314" y="130"/>
    </contour>
    <contour>
      <point x="259" y="457" type="line"/>
      <point x="272" y="549" type="line" smooth="yes"/>
      <point x="282" y="611"/>
      <point x="309" y="649"/>
      <point x="351" y="649" type="curve" smooth="yes"/>
      <point x="381" y="649"/>
      <point x="392" y="631"/>
      <point x="385" y="588" type="curve" smooth="yes"/>
      <point x="373" y="515"/>
      <point x="336" y="487"/>
      <point x="289" y="487" type="curve" smooth="yes"/>
      <point x="234" y="487" type="line"/>
    </contour>
  </outline>
</glyph>
<glyph name="verticalbar-cy" format="2">
  <advance width="161"/>
  <outline>
    <contour>
      <point x="-16" y="133" type="line"/>
      <point x="56" y="133" type="line"/>
      <point x="99" y="408" type="line"/>
      <point x="27" y="408" type="line"/>
    </contour>
  </outline>
</glyph>
<glyph name="won.BRACKET.70" format="2">
  <advance width="1050"/>
  <outline>
    <contour>
      <point x="194" y="0" type="line"/>
      <point x="376" y="0" type="line"/>
      <point x="570" y="465" type="line"/>
      <point x="530" y="466" type="line"/>
      <point x="582" y="0" type="line"/>
      <point x="767" y="0" type="line"/>
      <point x="877" y="261" type="line"/>
      <point x="827" y="229" type="line"/>
      <point x="985" y="229" type="line"/>
      <point x="999" y="319" type="line"/>
      <point x="744" y="319" type="line"/>
      <point x="695" y="183" type="line"/>
      <point x="736" y="184" type="line"/>
      <point x="694" y="710" type="line"/>
      <point x="513" y="705" type="line"/>
      <point x="309" y="182" type="line"/>
      <point x="349" y="182" type="line"/>
      <point x="344" y="319" type="line"/>
      <point x="65" y="319" type="line"/>
      <point x="51" y="229" type="line"/>
      <point x="230" y="229" type="line"/>
      <point x="166" y="288" type="line"/>
    </contour>
    <contour>
      <point x="71" y="359" type="line"/>
      <point x="345" y="359" type="line"/>
      <point x="335" y="611" type="line"/>
      <point x="306" y="575" type="line"/>
      <point x="378" y="610" type="line"/>
      <point x="393" y="710" type="line"/>
      <point x="107" y="705" type="line"/>
      <point x="92" y="605" type="line"/>
      <point x="144" y="580" type="line"/>
      <point x="134" y="611" type="line"/>
      <point x="154" y="410" type="line"/>
      <point x="178" y="449" type="line"/>
      <point x="86" y="449" type="line"/>
    </contour>
    <contour>
      <point x="759" y="359" type="line"/>
      <point x="1005" y="359" type="line"/>
      <point x="1020" y="449" type="line"/>
      <point x="911" y="449" type="line"/>
      <point x="934" y="397" type="line"/>
      <point x="1032" y="629" type="line"/>
      <point x="980" y="577" type="line"/>
      <point x="1068" y="610" type="line"/>
      <point x="1083" y="710" type="line"/>
      <point x="814" y="705" type="line"/>
      <point x="798" y="605" type="line"/>
      <point x="866" y="575" type="line"/>
      <point x="852" y="611" type="line"/>
    </contour>
  </outline>
</glyph>
